<?xml version="1.0" encoding="UTF-8" standalone="no"?><!-- Generator: Gravit.io --><svg xmlns="http://www.w3.org/2000/svg" xmlns:xlink="http://www.w3.org/1999/xlink" style="isolation:isolate" viewBox="0 0 511 511" width="511pt" height="511pt"><defs><clipPath id="_clipPath_Wz4b1KDRbfNhs9yJjgp2cA6ANjnFrZqF"><rect width="511" height="511"/></clipPath></defs><g clip-path="url(#_clipPath_Wz4b1KDRbfNhs9yJjgp2cA6ANjnFrZqF)"><path d=" M 451.167 341.243 C 437.432 378.467 416.66 410.833 389.421 437.433 C 358.415 467.71 317.815 491.769 268.747 508.93 C 267.137 509.492 265.456 509.952 263.768 510.291 C 261.538 510.731 259.269 510.969 257.02 511 L 256.579 511 C 254.181 511 251.772 510.759 249.382 510.291 C 247.694 509.952 246.037 509.492 244.435 508.942 C 195.308 491.808 154.657 467.761 123.62 437.484 C 96.369 410.884 75.601 378.537 61.886 341.313 C 36.946 273.633 38.365 199.075 39.508 139.161 L 39.527 138.241 C 39.757 133.294 39.905 128.097 39.987 122.358 C 40.404 94.183 62.806 70.873 90.985 69.302 C 149.737 66.023 195.187 46.861 234.022 9.01 L 234.361 8.698 C 240.809 2.784 248.934 -0.117 257.02 0.004 C 264.817 0.105 272.583 3.002 278.801 8.698 L 279.133 9.01 C 317.975 46.861 363.425 66.023 422.177 69.302 C 450.356 70.873 472.758 94.183 473.175 122.358 C 473.257 128.136 473.405 133.325 473.635 138.241 L 473.647 138.631 C 474.785 198.658 476.196 273.364 451.167 341.243 Z " fill="rgb(22,209,115)"/><path d=" M 451.167 341.243 C 437.432 378.467 416.66 410.833 389.421 437.433 C 358.415 467.71 317.815 491.769 268.747 508.93 C 267.137 509.492 265.456 509.952 263.768 510.291 C 261.538 510.731 259.269 510.969 257.02 511 L 257.02 0.004 C 264.817 0.105 272.583 3.002 278.801 8.698 L 279.133 9.01 C 317.975 46.861 363.425 66.023 422.177 69.302 C 450.356 70.873 472.758 94.183 473.175 122.358 C 473.257 128.136 473.405 133.325 473.635 138.241 L 473.647 138.631 C 474.785 198.658 476.196 273.364 451.167 341.243 Z " fill="rgb(22,209,115)"/><path d=" M 383.924 255.5 C 383.924 325.57 327.031 382.607 257.02 382.857 L 256.571 382.857 C 186.353 382.857 129.215 325.722 129.215 255.5 C 129.215 185.282 186.353 128.148 256.571 128.148 L 257.02 128.148 C 327.031 128.397 383.924 185.434 383.924 255.5 Z " fill="rgb(255,255,255)"/><path d=" M 383.924 255.5 C 383.924 325.57 327.031 382.607 257.02 382.857 L 257.02 128.148 C 327.031 128.397 383.924 185.434 383.924 255.5 Z " fill="rgb(255,255,255)"/><g><g><linearGradient id="_lgradient_0" x1="0" y1="0.5" x2="4.105627729985249" y2="3.0755363232762556" gradientTransform="matrix(141.565,0,0,125.216,185.787,192.892)" gradientUnits="userSpaceOnUse"><stop offset="0%" stop-opacity="1" style="stop-color:rgb(0,221,128)"/><stop offset="100%" stop-opacity="1" style="stop-color:rgb(0,0,0)"/></linearGradient><path d=" M 271.215 214.384 C 277.761 218.697 282.351 225.997 283.186 234.47 C 285.856 235.781 288.818 236.535 291.96 236.535 C 303.427 236.535 312.722 226.766 312.722 214.714 C 312.722 202.661 303.427 192.892 291.96 192.892 C 280.602 192.896 271.388 202.49 271.215 214.384 Z  M 257.613 259.065 C 269.081 259.065 278.376 249.294 278.376 237.242 C 278.376 225.191 269.079 215.422 257.613 215.422 C 246.148 215.422 236.848 225.193 236.848 237.244 C 236.848 249.296 246.148 259.065 257.613 259.065 Z  M 266.42 260.552 L 248.803 260.552 C 234.145 260.552 222.22 273.088 222.22 288.495 L 222.22 311.14 L 222.274 311.494 L 223.758 311.983 C 237.747 316.577 249.9 318.109 259.903 318.109 C 279.441 318.109 290.765 312.254 291.463 311.881 L 292.85 311.143 L 292.998 311.143 L 292.998 288.495 C 293.004 273.088 281.079 260.552 266.42 260.552 Z  M 300.77 238.024 L 283.289 238.024 C 283.1 245.376 280.114 251.995 275.392 256.757 C 288.421 260.829 297.954 273.528 297.954 288.528 L 297.954 295.506 C 315.215 294.842 325.161 289.7 325.817 289.354 L 327.203 288.615 L 327.352 288.615 L 327.352 265.963 C 327.352 250.558 315.427 238.024 300.77 238.024 Z  M 221.182 236.539 C 225.244 236.539 229.023 235.293 232.224 233.17 C 233.242 226.194 236.8 220.098 241.883 215.946 C 241.904 215.537 241.941 215.132 241.941 214.72 C 241.941 202.667 232.645 192.898 221.182 192.898 C 209.713 192.898 200.42 202.667 200.42 214.72 C 200.42 226.768 209.713 236.539 221.182 236.539 Z  M 239.828 256.757 C 235.129 252.02 232.154 245.435 231.936 238.128 C 231.288 238.078 230.647 238.024 229.986 238.024 L 212.37 238.024 C 197.712 238.024 185.787 250.558 185.787 265.963 L 185.787 288.612 L 185.842 288.961 L 187.326 289.453 C 198.548 293.135 208.563 294.832 217.262 295.367 L 217.262 288.528 C 217.266 273.528 226.795 260.832 239.828 256.757 Z " fill="url(#_lgradient_0)"/></g></g></g></svg>